<?xml version="1.0" encoding="UTF-8" standalone="no"?>
<!-- Created with Inkscape (http://www.inkscape.org/) -->

<svg
   width="109.99999mm"
   height="50mm"
   viewBox="0 0 109.99999 50"
   version="1.1"
   id="svg1"
   xml:space="preserve"
   inkscape:version="1.3.2 (091e20e, 2023-11-25, custom)"
   sodipodi:docname="logo.svg"
   inkscape:export-filename="brand_new.svg"
   inkscape:export-xdpi="96"
   inkscape:export-ydpi="96"
   xmlns:inkscape="http://www.inkscape.org/namespaces/inkscape"
   xmlns:sodipodi="http://sodipodi.sourceforge.net/DTD/sodipodi-0.dtd"
   xmlns="http://www.w3.org/2000/svg"
   xmlns:svg="http://www.w3.org/2000/svg"><sodipodi:namedview
     id="namedview1"
     pagecolor="#ffffff"
     bordercolor="#000000"
     borderopacity="0.25"
     inkscape:showpageshadow="2"
     inkscape:pageopacity="0.0"
     inkscape:pagecheckerboard="0"
     inkscape:deskcolor="#d1d1d1"
     inkscape:document-units="mm"
     inkscape:zoom="1.4142136"
     inkscape:cx="540.93669"
     inkscape:cy="363.09933"
     inkscape:window-width="2880"
     inkscape:window-height="1586"
     inkscape:window-x="3349"
     inkscape:window-y="-11"
     inkscape:window-maximized="1"
     inkscape:current-layer="layer1" /><defs
     id="defs1" /><g
     inkscape:label="Capa 1"
     inkscape:groupmode="layer"
     id="layer1"><g
       id="g17"
       transform="translate(-86.247877,-23.573172)"><path
         style="fill:#000000;stroke-width:0.565747"
         d="m 166.8749,63.89963 c -0.5827,-0.74823 0.0118,-1.24121 1.86314,-1.54494 2.62537,-0.43074 5.20947,-3.3944 5.88454,-6.74887 0.41522,-2.0633 0.46539,-11.73326 0.0687,-13.24799 -0.22453,-0.85742 -0.27808,-0.80711 -0.68625,0.64472 -0.78074,2.77701 -3.61379,8.36917 -4.76113,9.39801 -1.34234,1.20368 -2.3004,1.12029 -3.28178,-0.28565 -1.38658,-1.98644 -0.34278,-7.03969 2.33772,-11.31742 1.71639,-2.73911 3.52471,-4.16 5.2943,-4.16 2.34458,0 2.48468,0.32762 2.84849,6.66084 0.4804,8.36283 0.42632,11.60866 -0.22949,13.77262 -0.74969,2.47372 -2.81604,5.33989 -4.52753,6.27998 -1.83378,1.00726 -4.23988,1.28169 -4.81073,0.5487 z m 2.44463,-14.56121 c 1.24912,-1.93478 4.6166,-9.39252 4.6166,-10.22408 0,-1.62888 -2.32942,-0.56676 -3.97405,1.81199 -1.95515,2.82789 -3.77985,8.21274 -3.26627,9.63902 0.3705,1.0289 1.51193,0.49513 2.62372,-1.22693 z m -74.393154,7.11956 c -3.097484,-1.53749 -5.638602,-4.78771 -5.4381,-6.95561 0.15709,-1.69853 0.869484,-1.77722 1.159788,-0.12812 0.26641,1.51334 2.255606,4.10135 3.811369,4.9587 1.524228,0.83998 3.986469,0.70798 4.80331,-0.2575 1.057437,-1.24986 0.867767,-6.88441 -0.546602,-16.2379 -1.167642,-7.72184 -1.159953,-8.82118 0.05824,-8.32301 0.326344,0.13345 0.803634,2.35608 1.459339,6.79579 0.53592,3.6286 0.97035,6.96824 0.96541,7.42142 -0.0173,1.58995 0.32513,2.02081 1.24946,1.57199 0.68677,-0.33346 0.8863,-0.80193 1.08288,-2.54242 0.47342,-4.19152 1.74378,-5.85199 4.44671,-5.81224 2.34451,0.0345 5.08522,2.41717 4.53571,3.9432 -0.10019,0.27823 -1.57255,1.35857 -3.27192,2.40075 -4.55723,2.79483 -4.19954,2.34622 -3.7746,4.73405 0.20335,1.14267 0.66273,2.6814 1.02084,3.41939 0.56953,1.17367 0.84059,1.35664 2.16313,1.46018 2.53084,0.19813 4.0764,-1.39631 4.83557,-4.98852 0.52683,-2.49282 1.46439,-2.76172 1.36822,-0.39243 -0.11734,2.8909 -2.65289,6.58802 -4.93722,7.199 -1.24858,0.33396 -3.18177,-0.1207 -3.82173,-0.89881 -0.87758,-1.067 -1.66021,-2.94106 -1.90246,-4.55549 -0.28743,-1.91554 -0.47317,-2.20001 -1.63391,-2.50248 l -0.94822,-0.24709 -0.12157,3.98233 c -0.11735,3.84401 -0.15872,4.02159 -1.19136,5.11333 -1.421728,1.50307 -3.411525,1.81475 -5.372285,0.84149 z m 13.417954,-14.36921 2.95194,-1.76908 -0.97207,-0.89106 c -1.38364,-1.26832 -3.55645,-1.23616 -4.35614,0.0645 -0.55596,0.90423 -1.15999,4.36473 -0.76187,4.36473 0.10242,0 1.51458,-0.79608 3.13814,-1.76907 z m 26.90753,13.18101 c -0.11759,-0.20274 0.82567,-4.86272 2.09612,-10.3555 1.27045,-5.49278 2.57414,-11.29939 2.89708,-12.90357 0.58349,-2.89835 1.19834,-3.78327 1.99103,-2.86557 0.21949,0.2541 1.6354,3.62566 3.14645,7.49235 1.95648,5.00648 2.89458,6.99128 3.25871,6.89468 0.28123,-0.0746 1.11308,-0.22539 1.84857,-0.33506 1.08143,-0.16124 1.33724,-0.0792 1.33724,0.42883 0,0.34552 -0.36105,0.77684 -0.80235,0.9585 -2.58982,1.06611 -2.50692,0.48373 -0.76208,5.3537 1.59034,4.43874 1.70582,5.47558 0.58486,5.25142 -0.42753,-0.0855 -1.14175,-1.50574 -2.25963,-4.49331 l -1.6345,-4.36829 -1.30946,0.0435 c -2.22828,0.0741 -5.58725,0.98418 -6.77208,1.83485 -1.01869,0.73139 -1.17172,1.10004 -1.54872,3.73084 -0.23009,1.60559 -0.52038,3.0952 -0.6451,3.31024 -0.2866,0.49419 -1.1447,0.50764 -1.42614,0.0224 z m 7.32442,-10.25475 c 1.6053,-0.4086 3.00144,-0.83105 3.10253,-0.93878 0.10109,-0.10773 -0.66653,-2.68136 -1.70582,-5.71918 -1.03929,-3.03781 -1.95545,-5.45314 -2.03592,-5.36739 -0.11661,0.12426 -1.40724,5.66695 -2.77403,11.91321 -0.22701,1.03746 -0.22271,1.03759 3.41324,0.11214 z m 10.02731,9.90506 c -0.32468,-0.21384 -0.40916,-2.5623 -0.33738,-9.37894 0.0901,-8.55706 0.13467,-9.09367 0.75531,-9.09367 0.61363,0 0.65907,0.41025 0.65242,5.89028 -0.007,5.76847 0.004,5.851 0.5123,3.9902 2.01857,-7.38361 2.80957,-8.93729 4.92968,-9.68294 1.5827,-0.55665 2.46465,-0.0824 3.36664,1.81026 1.09676,2.30136 1.57414,5.64363 1.61173,11.28405 0.0304,4.55967 -0.0445,5.32837 -0.52879,5.43085 -0.48509,0.10264 -0.62032,-0.80185 -0.96464,-6.45152 -0.41572,-6.82143 -0.82615,-8.9951 -1.89265,-10.02366 -1.03485,-0.99804 -1.98603,-0.3227 -3.15362,2.23909 -1.11612,2.44885 -2.67071,8.32231 -3.08619,11.66006 -0.244,1.96015 -0.99602,2.89814 -1.86481,2.32594 z m -34.43996,-2.03681 c -0.107,-1.0973 -0.29485,-4.00444 -0.41744,-6.46032 -0.12259,-2.45586 -0.32741,-4.45915 -0.45516,-4.45174 -0.12775,0.007 -0.63344,0.25786 -1.12377,0.55656 -1.20652,0.735 -2.49618,0.72413 -2.49618,-0.021 0,-0.34869 0.71323,-0.90696 1.73924,-1.36136 l 1.73924,-0.77026 0.15877,-4.24392 c 0.21423,-5.72631 0.88753,-7.09406 3.49217,-7.09406 1.66888,0 3.66864,3.12375 3.06786,4.79219 -0.17898,0.49703 -0.32184,0.52446 -0.75166,0.14432 -0.29187,-0.25814 -0.53068,-0.75238 -0.53068,-1.0983 0,-1.08823 -1.06095,-2.31813 -1.9997,-2.31813 -1.28071,0 -1.92287,1.89957 -1.92287,5.68807 0,3.56114 -0.10554,3.5005 3.56747,2.04963 1.49793,-0.5917 2.66959,-0.863 2.85833,-0.66186 0.55718,0.59377 -0.10457,1.10298 -3.17039,2.43965 l -2.98505,1.30145 0.23297,3.99699 c 0.12813,2.19833 0.33013,5.23679 0.4489,6.75212 0.2042,2.60537 0.17589,2.75513 -0.52079,2.75513 -0.62631,0 -0.76588,-0.29901 -0.93126,-1.9951 z m 10.34134,0 c -0.107,-1.0973 -0.29485,-4.00444 -0.41744,-6.46032 -0.12259,-2.45586 -0.32741,-4.45915 -0.45516,-4.45174 -0.12775,0.007 -0.63345,0.25786 -1.12377,0.55656 -1.20652,0.735 -2.49618,0.72413 -2.49618,-0.021 0,-0.34869 0.71324,-0.90696 1.73924,-1.36136 l 1.73924,-0.77026 0.15877,-4.24392 c 0.21423,-5.72631 0.88753,-7.09406 3.49218,-7.09406 1.66888,0 3.66863,3.12375 3.06785,4.79219 -0.17898,0.49703 -0.32184,0.52446 -0.75165,0.14432 -0.29188,-0.25814 -0.53068,-0.75238 -0.53068,-1.0983 0,-1.08823 -1.06096,-2.31813 -1.99971,-2.31813 -1.28071,0 -1.92287,1.89957 -1.92287,5.68807 0,3.56114 -0.10554,3.5005 3.56747,2.04963 1.49793,-0.5917 2.66959,-0.863 2.85834,-0.66186 0.55716,0.59377 -0.10457,1.10298 -3.1704,2.43965 l -2.98505,1.30145 0.23297,3.99699 c 0.12813,2.19833 0.33013,5.23679 0.4489,6.75212 0.2042,2.60537 0.17589,2.75513 -0.52079,2.75513 -0.6263,0 -0.76588,-0.29901 -0.93126,-1.9951 z m 53.70679,1.44155 c -1.29333,-0.62067 -2.41741,-2.82158 -2.86358,-5.60682 -0.22096,-1.37934 -0.4036,-1.6265 -1.40659,-1.90347 -1.3788,-0.38075 -1.47408,-0.91684 -0.26711,-1.50289 0.58857,-0.28579 0.94175,-0.82472 1.05308,-1.60693 0.0921,-0.64732 0.25573,-1.77547 0.36356,-2.50701 0.30343,-2.05845 1.42745,-3.7245 2.76574,-4.09947 2.2892,-0.6414 5.1136,0.69497 5.79791,2.74328 0.42109,1.26044 -0.0188,1.68839 -4.37061,4.2521 -2.17696,1.28247 -2.91254,1.90558 -2.79477,2.36748 0.0879,0.3448 0.26747,1.30298 0.39904,2.1293 0.13156,0.82632 0.55001,2.15163 0.92988,2.94514 0.64168,1.34042 0.80203,1.44274 2.26076,1.44274 2.5712,0 4.14338,-1.94987 5.0009,-6.20229 0.26878,-1.33285 1.04,-1.1449 1.19835,0.29204 0.16177,1.46794 -1.78346,5.53505 -3.16972,6.62726 -1.40932,1.1104 -3.36967,1.36242 -4.89684,0.62954 z m 1.42227,-12.24299 2.8893,-1.77601 -0.96452,-0.88412 c -1.93332,-1.7722 -4.4838,-0.82595 -4.98598,1.84982 -0.27035,1.44054 -0.28055,2.58631 -0.023,2.58631 0.1072,0 1.4951,-0.7992 3.08421,-1.776 z m 7.93739,12.31823 c -0.0947,-0.26308 -0.12982,-5.94682 -0.078,-12.63053 0.0871,-11.22526 0.14188,-12.16198 0.71832,-12.28018 0.58433,-0.1198 0.62405,0.6842 0.62405,12.63053 0,11.20375 -0.0666,12.75849 -0.54609,12.75849 -0.30035,0 -0.6236,-0.21524 -0.71832,-0.47831 z"
         id="path15" /><path
         style="fill:#ff3636;stroke:none;stroke-width:0.521136"
         d="m 133.20459,59.96169 -1.98295,10.33554 h 1.13312 l 0.28327,-2.01342 c 2.14005,0 2.82181,-0.1167 3.25771,2.01342 h 1.27475 L 135.0459,59.96169 h -1.84131 m 7.9318,0 v 10.33554 h 1.13312 v -4.42952 c 0.80825,9e-5 1.76474,-0.0704 2.24645,0.68523 0.84837,1.33084 -0.67541,3.73674 1.57781,3.74429 -0.20213,-1.51567 0.48851,-4.34712 -1.41639,-4.96643 1.43526,-0.88335 2.05702,-3.93931 0.41869,-5.00299 -1.02594,-0.66607 -2.78016,-0.36612 -3.95968,-0.36612 m 1.13312,4.8322 v -3.75838 c 0.63864,0 1.52977,-0.13817 2.06372,0.2697 0.77889,0.59498 0.71207,2.70363 -0.10121,3.23928 -0.54179,0.35684 -1.33874,0.2494 -1.96251,0.2494 m -8.07344,-3.22147 1.13311,5.63757 h -2.40787 c 0.1289,-1.53498 0.34612,-4.37118 1.27476,-5.63757 z"
         id="path17" /></g></g></svg>
